<mxfile host="app.diagrams.net" modified="2023-08-28T00:02:59.964Z" agent="Mozilla/5.0 (X11; Linux x86_64) AppleWebKit/537.36 (KHTML, like Gecko) Chrome/113.0.0.0 Safari/537.36" etag="wZycI3sVKkSFx1fleh3O" version="21.6.8" type="github" pages="2">
  <diagram name="Demo 1" id="TFBNpdZNEZcT1AOxqVMR">
    <mxGraphModel dx="1362" dy="807" grid="1" gridSize="10" guides="1" tooltips="1" connect="1" arrows="1" fold="1" page="1" pageScale="1" pageWidth="827" pageHeight="1169" math="0" shadow="0">
      <root>
        <mxCell id="0" />
        <mxCell id="1" parent="0" />
        <mxCell id="2g6AprukRjpqOdiRfceE-1" value="" style="rounded=1;whiteSpace=wrap;html=1;fillColor=none;strokeWidth=2;" vertex="1" parent="1">
          <mxGeometry x="200" y="30" width="240" height="500" as="geometry" />
        </mxCell>
        <mxCell id="2g6AprukRjpqOdiRfceE-2" value="&lt;b&gt;&lt;font style=&quot;font-size: 14px;&quot;&gt;eth0&lt;/font&gt;&lt;/b&gt;" style="rounded=1;whiteSpace=wrap;html=1;" vertex="1" parent="1">
          <mxGeometry x="400" y="265" width="100" height="30" as="geometry" />
        </mxCell>
        <mxCell id="2g6AprukRjpqOdiRfceE-3" value="" style="rounded=1;whiteSpace=wrap;html=1;fillColor=#99CCFF;strokeColor=none;" vertex="1" parent="1">
          <mxGeometry x="240" y="50" width="160" height="160" as="geometry" />
        </mxCell>
        <mxCell id="2g6AprukRjpqOdiRfceE-4" value="" style="rounded=1;whiteSpace=wrap;html=1;fillColor=#f8cecc;strokeColor=#b85450;" vertex="1" parent="1">
          <mxGeometry x="240" y="340" width="160" height="160" as="geometry" />
        </mxCell>
        <mxCell id="2g6AprukRjpqOdiRfceE-5" value="&lt;b&gt;&lt;font style=&quot;font-size: 14px;&quot;&gt;veth-red&lt;/font&gt;&lt;/b&gt;" style="rounded=1;whiteSpace=wrap;html=1;strokeColor=#67AB9F;strokeWidth=3;" vertex="1" parent="1">
          <mxGeometry x="280" y="330" width="80" height="30" as="geometry" />
        </mxCell>
        <mxCell id="2g6AprukRjpqOdiRfceE-6" value="&lt;b&gt;&lt;font style=&quot;font-size: 14px;&quot;&gt;veth-blue&lt;/font&gt;&lt;/b&gt;" style="rounded=1;whiteSpace=wrap;html=1;strokeColor=#67AB9F;strokeWidth=3;" vertex="1" parent="1">
          <mxGeometry x="280" y="190" width="80" height="30" as="geometry" />
        </mxCell>
        <mxCell id="2g6AprukRjpqOdiRfceE-10" value="Namespace&amp;nbsp;&lt;br&gt;&lt;b&gt;blue&lt;/b&gt;" style="text;html=1;strokeColor=none;fillColor=none;align=center;verticalAlign=middle;whiteSpace=wrap;rounded=0;" vertex="1" parent="1">
          <mxGeometry x="290" y="60" width="60" height="30" as="geometry" />
        </mxCell>
        <mxCell id="2g6AprukRjpqOdiRfceE-11" value="Namespace&amp;nbsp;&lt;br&gt;&lt;b&gt;red&lt;/b&gt;" style="text;html=1;strokeColor=none;fillColor=none;align=center;verticalAlign=middle;whiteSpace=wrap;rounded=0;" vertex="1" parent="1">
          <mxGeometry x="290" y="460" width="60" height="30" as="geometry" />
        </mxCell>
        <mxCell id="2g6AprukRjpqOdiRfceE-12" value="" style="endArrow=none;html=1;rounded=0;entryX=0.5;entryY=1;entryDx=0;entryDy=0;strokeColor=#67AB9F;strokeWidth=3;" edge="1" parent="1" source="2g6AprukRjpqOdiRfceE-5" target="2g6AprukRjpqOdiRfceE-6">
          <mxGeometry width="50" height="50" relative="1" as="geometry">
            <mxPoint x="390" y="320" as="sourcePoint" />
            <mxPoint x="440" y="270" as="targetPoint" />
          </mxGeometry>
        </mxCell>
      </root>
    </mxGraphModel>
  </diagram>
  <diagram id="ESZjHFmeyQg33uJ4yu1y" name="Demo 2">
    <mxGraphModel dx="1362" dy="807" grid="1" gridSize="10" guides="1" tooltips="1" connect="1" arrows="1" fold="1" page="1" pageScale="1" pageWidth="827" pageHeight="1169" math="0" shadow="0">
      <root>
        <mxCell id="0" />
        <mxCell id="1" parent="0" />
        <mxCell id="VyqFEU6QPlBlaj9P27Qo-1" value="&lt;span style=&quot;color: rgb(0, 0, 0); font-family: Helvetica; font-size: 12px; font-style: normal; font-variant-ligatures: normal; font-variant-caps: normal; font-weight: 400; letter-spacing: normal; orphans: 2; text-align: center; text-indent: 0px; text-transform: none; widows: 2; word-spacing: 0px; -webkit-text-stroke-width: 0px; background-color: rgb(251, 251, 251); text-decoration-thickness: initial; text-decoration-style: initial; text-decoration-color: initial; float: none; display: inline !important;&quot;&gt;Namespace&amp;nbsp;&lt;/span&gt;&lt;br style=&quot;border-color: var(--border-color); color: rgb(0, 0, 0); font-family: Helvetica; font-size: 12px; font-style: normal; font-variant-ligatures: normal; font-variant-caps: normal; font-weight: 400; letter-spacing: normal; orphans: 2; text-align: center; text-indent: 0px; text-transform: none; widows: 2; word-spacing: 0px; -webkit-text-stroke-width: 0px; background-color: rgb(251, 251, 251); text-decoration-thickness: initial; text-decoration-style: initial; text-decoration-color: initial;&quot;&gt;&lt;b style=&quot;border-color: var(--border-color); color: rgb(0, 0, 0); font-family: Helvetica; font-size: 12px; font-style: normal; font-variant-ligatures: normal; font-variant-caps: normal; letter-spacing: normal; orphans: 2; text-align: center; text-indent: 0px; text-transform: none; widows: 2; word-spacing: 0px; -webkit-text-stroke-width: 0px; background-color: rgb(251, 251, 251); text-decoration-thickness: initial; text-decoration-style: initial; text-decoration-color: initial;&quot;&gt;red&lt;/b&gt;" style="rounded=1;whiteSpace=wrap;html=1;fillColor=none;strokeWidth=2;" vertex="1" parent="1">
          <mxGeometry x="80" y="40" width="680" height="620" as="geometry" />
        </mxCell>
        <mxCell id="VyqFEU6QPlBlaj9P27Qo-2" value="&lt;b&gt;&lt;font style=&quot;font-size: 14px;&quot;&gt;eth0&lt;/font&gt;&lt;/b&gt;" style="rounded=1;whiteSpace=wrap;html=1;" vertex="1" parent="1">
          <mxGeometry x="710" y="335" width="100" height="30" as="geometry" />
        </mxCell>
        <mxCell id="VyqFEU6QPlBlaj9P27Qo-3" value="" style="rounded=1;whiteSpace=wrap;html=1;fillColor=#99CCFF;strokeColor=none;" vertex="1" parent="1">
          <mxGeometry x="140" y="60" width="160" height="160" as="geometry" />
        </mxCell>
        <mxCell id="VyqFEU6QPlBlaj9P27Qo-4" value="" style="rounded=1;whiteSpace=wrap;html=1;fillColor=#f8cecc;strokeColor=#b85450;" vertex="1" parent="1">
          <mxGeometry x="360" y="460" width="160" height="160" as="geometry" />
        </mxCell>
        <mxCell id="VyqFEU6QPlBlaj9P27Qo-5" value="&lt;b&gt;&lt;font style=&quot;font-size: 14px;&quot;&gt;veth-red&lt;/font&gt;&lt;/b&gt;" style="rounded=1;whiteSpace=wrap;html=1;strokeColor=#67AB9F;strokeWidth=3;" vertex="1" parent="1">
          <mxGeometry x="400" y="440" width="80" height="30" as="geometry" />
        </mxCell>
        <mxCell id="VyqFEU6QPlBlaj9P27Qo-6" value="&lt;b&gt;&lt;font style=&quot;font-size: 14px;&quot;&gt;veth-blue&lt;/font&gt;&lt;/b&gt;" style="rounded=1;whiteSpace=wrap;html=1;strokeColor=#67AB9F;strokeWidth=3;" vertex="1" parent="1">
          <mxGeometry x="160" y="200" width="80" height="30" as="geometry" />
        </mxCell>
        <mxCell id="VyqFEU6QPlBlaj9P27Qo-7" value="Namespace&amp;nbsp;&lt;br&gt;&lt;b&gt;blue&lt;/b&gt;" style="text;html=1;strokeColor=none;fillColor=none;align=center;verticalAlign=middle;whiteSpace=wrap;rounded=0;" vertex="1" parent="1">
          <mxGeometry x="170" y="70" width="60" height="30" as="geometry" />
        </mxCell>
        <mxCell id="VyqFEU6QPlBlaj9P27Qo-8" value="Namespace&amp;nbsp;&lt;br&gt;&lt;b&gt;red&lt;/b&gt;" style="text;html=1;strokeColor=none;fillColor=none;align=center;verticalAlign=middle;whiteSpace=wrap;rounded=0;" vertex="1" parent="1">
          <mxGeometry x="414" y="580" width="60" height="30" as="geometry" />
        </mxCell>
        <mxCell id="VyqFEU6QPlBlaj9P27Qo-11" value="" style="rounded=1;whiteSpace=wrap;html=1;fillColor=#d5e8d4;strokeColor=#82b366;" vertex="1" parent="1">
          <mxGeometry x="550" y="70" width="160" height="160" as="geometry" />
        </mxCell>
        <mxCell id="VyqFEU6QPlBlaj9P27Qo-12" value="&lt;b&gt;&lt;font style=&quot;font-size: 14px;&quot;&gt;veth-red&lt;/font&gt;&lt;/b&gt;" style="rounded=1;whiteSpace=wrap;html=1;strokeColor=#67AB9F;strokeWidth=3;" vertex="1" parent="1">
          <mxGeometry x="590" y="220" width="80" height="30" as="geometry" />
        </mxCell>
      </root>
    </mxGraphModel>
  </diagram>
</mxfile>
